<svg width="17" height="16" viewBox="0 0 17 16" fill="none" xmlns="http://www.w3.org/2000/svg">
<g id="clear" clip-path="url(#clip0_1221_2362)">
<path id="Vector" d="M12.3543 3.80714C12.0943 3.54714 11.6743 3.54714 11.4143 3.80714L8.15428 7.06047L4.89428 3.80047C4.63428 3.54047 4.21428 3.54047 3.95428 3.80047C3.69428 4.06047 3.69428 4.48047 3.95428 4.74047L7.21428 8.00047L3.95428 11.2605C3.69428 11.5205 3.69428 11.9405 3.95428 12.2005C4.21428 12.4605 4.63428 12.4605 4.89428 12.2005L8.15428 8.94047L11.4143 12.2005C11.6743 12.4605 12.0943 12.4605 12.3543 12.2005C12.6143 11.9405 12.6143 11.5205 12.3543 11.2605L9.09428 8.00047L12.3543 4.74047C12.6076 4.48714 12.6076 4.06047 12.3543 3.80714Z" fill="#94A3B8"/>
</g>
<defs>
<clipPath id="clip0_1221_2362">
<rect width="16" height="16" fill="white" transform="translate(0.154297)"/>
</clipPath>
</defs>
</svg>
