<svg width="12" height="12" viewBox="0 0 12 12" fill="none" xmlns="http://www.w3.org/2000/svg">
<path id="Vector" d="M6 1C3.23859 1 1 3.23859 1 6C1 8.76156 3.23859 11 6 11C8.76156 11 11 8.76156 11 6C11 3.23859 8.76156 1 6 1ZM6 10.3848C3.58766 10.3848 1.625 8.41234 1.625 5.99998C1.625 3.58764 3.58766 1.62498 6 1.62498C8.41234 1.62498 10.375 3.58765 10.375 5.99998C10.375 8.41231 8.41234 10.3848 6 10.3848ZM7.99547 4.17047L5.06187 7.1225L3.74077 5.80141C3.61874 5.67938 3.42093 5.67938 3.29874 5.80141C3.17671 5.92344 3.17671 6.12125 3.29874 6.24328L4.84546 7.79016C4.96749 7.91203 5.1653 7.91203 5.28749 7.79016C5.30155 7.77609 5.31359 7.76077 5.32453 7.74484L8.43766 4.61249C8.55953 4.49046 8.55953 4.29265 8.43766 4.17047C8.31547 4.04844 8.11766 4.04844 7.99547 4.17047Z" fill="#5D5FEF" stroke="#5D5FEF" stroke-width="0.5"/>
</svg>
