<svg width="20" height="20" viewBox="0 0 20 20" fill="none" xmlns="http://www.w3.org/2000/svg">
<g id="Group 289516">
<path id="Vector" d="M1 3.56V5.64C1 6.53608 1 6.98413 1.19619 7.32638C1.36876 7.62744 1.64413 7.87221 1.98282 8.02561C2.36786 8.2 2.87191 8.2 3.88 8.2H5.32C6.32809 8.2 6.83214 8.2 7.21718 8.02561C7.55587 7.87221 7.83124 7.62744 8.00381 7.32638C8.2 6.98413 8.2 6.53608 8.2 5.64V3.56C8.2 2.66392 8.2 2.21587 8.00381 1.87362C7.83124 1.57256 7.55587 1.32779 7.21718 1.17439C6.83214 1 6.32809 1 5.32 1H3.88C2.87191 1 2.36786 1 1.98282 1.17439C1.64413 1.32779 1.36876 1.57256 1.19619 1.87362C1 2.21587 1 2.66392 1 3.56Z" fill="white" fill-opacity="0.1" stroke="white" stroke-width="1.5"/>
<path id="Vector_2" d="M11.2 3.56V5.64C11.2 6.53608 11.2 6.98413 11.3961 7.32638C11.5687 7.62744 11.8441 7.87221 12.1828 8.02561C12.5678 8.2 13.0719 8.2 14.08 8.2H15.52C16.528 8.2 17.0321 8.2 17.4171 8.02561C17.7558 7.87221 18.0312 7.62744 18.2038 7.32638C18.4 6.98413 18.4 6.53608 18.4 5.64V3.56C18.4 2.66392 18.4 2.21587 18.2038 1.87362C18.0312 1.57256 17.7558 1.32779 17.4171 1.17439C17.0321 1 16.528 1 15.52 1H14.08C13.0719 1 12.5678 1 12.1828 1.17439C11.8441 1.32779 11.5687 1.57256 11.3961 1.87362C11.2 2.21587 11.2 2.66392 11.2 3.56Z" fill="white" fill-opacity="0.1" stroke="white" stroke-width="1.5"/>
<path id="Vector_3" d="M11.2 13.7602V15.8402C11.2 16.7363 11.2 17.1843 11.3961 17.5266C11.5687 17.8276 11.8441 18.0724 12.1828 18.2258C12.5678 18.4002 13.0719 18.4002 14.08 18.4002H15.52C16.528 18.4002 17.0321 18.4002 17.4171 18.2258C17.7558 18.0724 18.0312 17.8276 18.2038 17.5266C18.4 17.1843 18.4 16.7363 18.4 15.8402V13.7602C18.4 12.8641 18.4 12.4161 18.2038 12.0738C18.0312 11.7728 17.7558 11.528 17.4171 11.3746C17.0321 11.2002 16.528 11.2002 15.52 11.2002H14.08C13.0719 11.2002 12.5678 11.2002 12.1828 11.3746C11.8441 11.528 11.5687 11.7728 11.3961 12.0738C11.2 12.4161 11.2 12.8641 11.2 13.7602Z" fill="white" fill-opacity="0.1" stroke="white" stroke-width="1.5"/>
<path id="Vector_4" d="M1 13.7602V15.8402C1 16.7363 1 17.1843 1.19619 17.5266C1.36876 17.8276 1.64413 18.0724 1.98282 18.2258C2.36786 18.4002 2.87191 18.4002 3.88 18.4002H5.32C6.32809 18.4002 6.83214 18.4002 7.21718 18.2258C7.55587 18.0724 7.83124 17.8276 8.00381 17.5266C8.2 17.1843 8.2 16.7363 8.2 15.8402V13.7602C8.2 12.8641 8.2 12.4161 8.00381 12.0738C7.83124 11.7728 7.55587 11.528 7.21718 11.3746C6.83214 11.2002 6.32809 11.2002 5.32 11.2002H3.88C2.87191 11.2002 2.36786 11.2002 1.98282 11.3746C1.64413 11.528 1.36876 11.7728 1.19619 12.0738C1 12.4161 1 12.8641 1 13.7602Z" fill="white" fill-opacity="0.1" stroke="white" stroke-width="1.5"/>
</g>
</svg>
