<svg width="16" height="16" viewBox="0 0 16 16" fill="none" xmlns="http://www.w3.org/2000/svg">
<g id="Group 289753">
<path id="Vector 237" d="M2 10.5V9H2.5V8.5H3L3.5 8C3.5 7.83333 4.1 7.4 4.5 7L5 6.5V6L5.5 5.5L6.5 5L7 4L8 3.5L9 2L10 1.5L10.5 1L11.5 2L12.5 2.5V3V3.5L5 11.5H2V10.5Z" fill="#5D5FEF"/>
<path id="Vector" d="M15.3125 14.6836H0.6875C0.37684 14.6836 0.125 14.9354 0.125 15.2461C0.125 15.5568 0.37684 15.8086 0.6875 15.8086H15.3125C15.6232 15.8086 15.875 15.5568 15.875 15.2461C15.875 14.9354 15.6232 14.6836 15.3125 14.6836Z" fill="#8A88FF"/>
<path id="Vector_2" d="M13.2875 4.0625C13.7375 3.6125 13.7375 2.9375 13.2875 2.4875L11.2625 0.4625C10.8125 0.0125 10.1375 0.0125 9.6875 0.4625L1.25 8.9V12C1.25 12.2761 1.47386 12.5 1.75 12.5H4.85L13.2875 4.0625ZM10.475 1.25L12.5 3.275L10.8125 4.9625L8.7875 2.9375L10.475 1.25ZM2.375 11.375V9.35L8 3.725L10.025 5.75L4.4 11.375H2.375Z" fill="#8A88FF"/>
</g>
</svg>
