<svg width="50" height="53" viewBox="0 0 50 53" fill="none" xmlns="http://www.w3.org/2000/svg">
<path d="M49.1537 20.3205C49.1434 20.31 49.1405 20.2925 49.1283 20.2839L44.25 16.8531V4.375C44.2486 3.2151 43.7873 2.10309 42.9671 1.28292C42.1469 0.462741 41.0349 0.00136627 39.875 0H25.875C25.6429 0 25.4204 0.0921872 25.2563 0.256282C25.0922 0.420376 25 0.642936 25 0.875C25 1.10706 25.0922 1.32962 25.2563 1.49372C25.4204 1.65781 25.6429 1.75 25.875 1.75H39.875C40.571 1.75076 41.2382 2.02757 41.7303 2.51969C42.2224 3.01181 42.4992 3.67904 42.5 4.375V25.1137L30.0074 33.9021L27.9066 32.0338C27.1026 31.3271 26.0686 30.9376 24.9983 30.9381C23.9279 30.9386 22.8943 31.329 22.0909 32.0363L19.9928 33.9019L7.5 25.1137V4.375C7.50076 3.67904 7.77757 3.01181 8.26969 2.51969C8.76181 2.02757 9.42904 1.75076 10.125 1.75H17.3857C17.6177 1.75 17.8403 1.65781 18.0044 1.49372C18.1685 1.32962 18.2607 1.10706 18.2607 0.875C18.2607 0.642936 18.1685 0.420376 18.0044 0.256282C17.8403 0.0921872 17.6177 0 17.3857 0H10.125C8.9651 0.00136627 7.85309 0.462741 7.03292 1.28292C6.21274 2.10309 5.75137 3.2151 5.75 4.375V16.8531L0.8717 20.2839C0.859538 20.2927 0.856563 20.3102 0.846325 20.3205C0.740174 20.3994 0.653691 20.5018 0.593619 20.6197C0.533546 20.7376 0.501508 20.8677 0.5 21V48.125C0.499897 48.7027 0.614622 49.2747 0.837507 49.8077C1.06039 50.3407 1.38699 50.8241 1.79833 51.2298C1.802 51.2341 1.8027 51.2397 1.80655 51.2439C1.83847 51.2721 1.87255 51.2978 1.90849 51.3207C2.71192 52.0759 3.77236 52.4974 4.875 52.5H45.125C46.239 52.498 47.3098 52.0685 48.1165 51.3001C48.1432 51.2829 48.1689 51.2641 48.1935 51.2439C48.1973 51.2397 48.198 51.2341 48.2017 51.2298C48.613 50.8241 48.9396 50.3407 49.1625 49.8077C49.3854 49.2747 49.5001 48.7027 49.5 48.125V21C49.4985 20.8677 49.4665 20.7376 49.4064 20.6197C49.3463 20.5018 49.2598 20.3994 49.1537 20.3205ZM44.25 18.9932L47.7257 21.4375L44.25 23.8826V18.9932ZM5.75 18.9932V23.8826L2.27433 21.4375L5.75 18.9932ZM2.25 48.125V23.5607L18.649 35.0971L2.5846 49.3814C2.36813 48.9978 2.25297 48.5654 2.25 48.125ZM45.125 50.75H4.875C4.53941 50.7491 4.20715 50.6835 3.89649 50.5565L23.2513 33.3463C23.7341 32.9213 24.3551 32.6866 24.9982 32.6861C25.6414 32.6856 26.2628 32.9194 26.7462 33.3436L46.1036 50.5565C45.7929 50.6835 45.4606 50.7491 45.125 50.75ZM47.75 48.125C47.747 48.5655 47.6319 48.9979 47.4154 49.3815L31.3512 35.097L47.75 23.5607V48.125Z" fill="#5D5FEF"/>
<path d="M20.9307 1.75H22.3744C22.6065 1.75 22.829 1.65781 22.9931 1.49372C23.1572 1.32962 23.2494 1.10706 23.2494 0.875C23.2494 0.642936 23.1572 0.420376 22.9931 0.256281C22.829 0.0921872 22.6065 0 22.3744 0H20.9307C20.6986 0 20.476 0.0921872 20.3119 0.256281C20.1479 0.420376 20.0557 0.642936 20.0557 0.875C20.0557 1.10706 20.1479 1.32962 20.3119 1.49372C20.476 1.65781 20.6986 1.75 20.9307 1.75Z" fill="#5D5FEF"/>
<path d="M18 15.75C18 15.9821 18.0922 16.2046 18.2563 16.3687C18.4204 16.5328 18.6429 16.625 18.875 16.625H24.125V21.875C24.125 22.1071 24.2172 22.3296 24.3813 22.4937C24.5454 22.6578 24.7679 22.75 25 22.75C25.2321 22.75 25.4546 22.6578 25.6187 22.4937C25.7828 22.3296 25.875 22.1071 25.875 21.875V16.625H31.125C31.3571 16.625 31.5796 16.5328 31.7437 16.3687C31.9078 16.2046 32 15.9821 32 15.75C32 15.5179 31.9078 15.2954 31.7437 15.1313C31.5796 14.9672 31.3571 14.875 31.125 14.875H25.875V9.625C25.875 9.39294 25.7828 9.17038 25.6187 9.00628C25.4546 8.84219 25.2321 8.75 25 8.75C24.7679 8.75 24.5454 8.84219 24.3813 9.00628C24.2172 9.17038 24.125 9.39294 24.125 9.625V14.875H18.875C18.6429 14.875 18.4204 14.9672 18.2563 15.1313C18.0922 15.2954 18 15.5179 18 15.75Z" fill="#5D5FEF"/>
</svg>
