<svg width="20" height="14" viewBox="0 0 20 14" fill="none" xmlns="http://www.w3.org/2000/svg">
<path id="Vector" d="M6 7.02637C7.995 7.02637 9.5 5.52137 9.5 3.52637C9.5 1.53137 7.995 0.0263672 6 0.0263672C4.005 0.0263672 2.5 1.53137 2.5 3.52637C2.5 5.52137 4.005 7.02637 6 7.02637ZM7 7.97437H5C2.243 7.97437 0 10.2174 0 12.9744V13.9744H12V12.9744C12 10.2174 9.757 7.97437 7 7.97437ZM18.293 3.26737L16 5.56037L13.707 3.26737L12.293 4.68137L14.585 6.97337L12.292 9.26637L13.706 10.6804L15.999 8.38737L18.293 10.6814L19.707 9.26737L17.414 6.97437L19.707 4.68137L18.293 3.26737Z" fill="#FF4D4F"/>
</svg>
