<svg width="170" height="30" viewBox="0 0 170 30" fill="none" xmlns="http://www.w3.org/2000/svg">
<g id="Group 289548">
<path id="Vector" d="M29.1134 13.3089C29.9823 14.1779 29.9823 15.5872 29.1134 16.456C28.2444 17.325 26.8357 17.325 25.9669 16.456C25.0979 15.5872 25.0979 14.1779 25.9669 13.3089C26.8356 12.4399 28.2443 12.4399 29.1134 13.3089ZM0.651763 13.3089C-0.217255 14.1779 -0.217255 15.5872 0.651763 16.456C1.52055 17.325 2.92993 17.325 3.79895 16.456C4.66797 15.5872 4.66797 14.1779 3.79895 13.3089C2.92993 12.4399 1.52055 12.4399 0.651763 13.3089ZM13.3089 25.9667C12.4399 26.8354 12.4399 28.2441 13.3089 29.1131C13.7435 29.5475 14.3131 29.7651 14.8828 29.7651C15.452 29.7651 16.0217 29.5475 16.4561 29.1131C17.325 28.2441 17.325 26.8354 16.4561 25.9667C16.0217 25.5314 15.452 25.3144 14.8828 25.3144C14.3131 25.3144 13.7435 25.5314 13.3089 25.9667ZM14.8828 12.6576C15.0577 12.6576 15.233 12.678 15.4047 12.7194C15.903 12.8387 16.3885 12.7021 16.7508 12.3398L18.6687 10.422C19.0311 10.0596 19.1676 9.57413 19.0484 9.07584C18.966 8.7333 18.966 8.37475 19.0484 8.03221C19.1677 7.53391 19.0311 7.04843 18.6687 6.68609L16.7508 4.7683C16.3885 4.40593 15.903 4.26865 15.4047 4.3886C15.233 4.42958 15.0576 4.45049 14.8828 4.45049C14.7075 4.45049 14.5319 4.42954 14.3611 4.3886C13.8627 4.26865 13.3766 4.40593 13.0142 4.7683L11.0968 6.68609C10.7345 7.04846 10.5974 7.53391 10.7174 8.03221C10.7997 8.37475 10.7997 8.7333 10.7174 9.07584C10.5974 9.57413 10.7345 10.0596 11.0968 10.422L13.0142 12.3398C13.3766 12.7021 13.8627 12.8387 14.3611 12.7194C14.5319 12.678 14.7075 12.6576 14.8828 12.6576ZM14.8828 0C15.452 0 16.0216 0.217414 16.456 0.652011C17.0246 1.2203 17.221 2.01908 17.0464 2.74717C16.9264 3.24524 17.0628 3.73138 17.4252 4.09398L19.343 6.01109C19.7054 6.37346 20.1916 6.5105 20.6892 6.39055C21.4173 6.21589 22.2167 6.41239 22.785 6.98067C23.654 7.84964 23.654 9.25837 22.785 10.1273C22.2167 10.6956 21.4173 10.8921 20.6892 10.7175C20.1916 10.5975 19.7054 10.7345 19.343 11.0969L17.4252 13.0143C17.0628 13.3766 16.9264 13.8621 17.0457 14.3604C17.1279 14.7036 17.1279 15.0621 17.0457 15.4047C16.9264 15.903 17.0628 16.3884 17.4252 16.7508L19.343 18.6686C19.7054 19.031 20.1916 19.1676 20.6892 19.0476C21.4173 18.8727 22.2167 19.0692 22.785 19.6377C23.654 20.5067 23.654 21.9154 22.785 22.7842C21.9156 23.6538 20.5069 23.6538 19.6379 22.7842C19.0693 22.2163 18.8735 21.4171 19.0484 20.689C19.1677 20.1907 19.0311 19.7052 18.6687 19.3429L16.7509 17.4251C16.3885 17.0627 15.903 16.9263 15.4047 17.0456C15.233 17.087 15.0577 17.1075 14.8828 17.1075C14.7075 17.1075 14.5319 17.087 14.3611 17.0456C13.8628 16.9263 13.3766 17.0627 13.0143 17.4251L11.0969 19.3429C10.7345 19.7052 10.5975 20.1907 10.7174 20.689C10.8923 21.4171 10.6956 22.2163 10.1273 22.7842C9.25826 23.6538 7.84957 23.6538 6.98055 22.7842C6.11177 21.9154 6.11177 20.5067 6.98055 19.6377C7.54839 19.0692 8.34788 18.8727 9.07576 19.0476C9.57406 19.1676 10.0595 19.0309 10.4219 18.6686L12.3397 16.7508C12.7021 16.3884 12.8394 15.903 12.7194 15.4047C12.6371 15.0622 12.6371 14.7036 12.7194 14.3604C12.8394 13.8621 12.7021 13.3766 12.3397 13.0143L10.4219 11.0969C10.0595 10.7345 9.57406 10.5975 9.07576 10.7175C8.34788 10.8921 7.54843 10.6956 6.98055 10.1273C6.11177 9.25834 6.11177 7.84964 6.98055 6.98067C7.54839 6.41239 8.34788 6.21589 9.07576 6.39055C9.57406 6.5105 10.0595 6.37346 10.4219 6.01109L12.3397 4.09398C12.7021 3.73138 12.8387 3.24524 12.7194 2.74717C12.5445 2.01908 12.741 1.22034 13.3089 0.652011C13.7435 0.217414 14.3131 0 14.8828 0Z" fill="url(#paint0_linear_264_4747)"/>
<g id="Vector_2">
<path d="M50.7247 23.8124L46.8321 16.7109H45.739V23.8124H41.1799V5H48.8317C50.307 5 51.5601 5.25905 52.591 5.77715C53.6397 6.29525 54.4217 7.00987 54.9372 7.92101C55.4526 8.81429 55.7104 9.81476 55.7104 10.9224C55.7104 12.173 55.3549 13.2896 54.6439 14.2722C53.9507 15.2548 52.9198 15.9516 51.5512 16.3625L55.8703 23.8124H50.7247ZM45.739 13.4683H48.5651C49.4005 13.4683 50.0226 13.2628 50.4314 12.8519C50.858 12.441 51.0713 11.8604 51.0713 11.11C51.0713 10.3954 50.858 9.83263 50.4314 9.42172C50.0226 9.01081 49.4005 8.80536 48.5651 8.80536H45.739V13.4683Z" fill="#5D5FEF"/>
<path d="M64.3845 5V16.2553C64.3845 17.3808 64.66 18.2473 65.211 18.8547C65.762 19.4622 66.5707 19.7659 67.6371 19.7659C68.7036 19.7659 69.5212 19.4622 70.09 18.8547C70.6587 18.2473 70.9431 17.3808 70.9431 16.2553V5H75.5022V16.2285C75.5022 17.9079 75.1467 19.3282 74.4358 20.4894C73.7248 21.6507 72.765 22.5261 71.5563 23.1157C70.3655 23.7052 69.0324 24 67.5571 24C66.0819 24 64.7577 23.7141 63.5846 23.1425C62.4293 22.5529 61.5139 21.6775 60.8385 20.5162C60.1631 19.3371 59.8254 17.9079 59.8254 16.2285V5H64.3845Z" fill="#5D5FEF"/>
<path d="M91.3678 14.165C92.452 14.3973 93.323 14.9422 93.9806 15.7997C94.6383 16.6394 94.9671 17.6041 94.9671 18.6939C94.9671 20.2661 94.4161 21.5167 93.3141 22.4457C92.2298 23.3568 90.7102 23.8124 88.755 23.8124H80.0367V5H88.4617C90.3636 5 91.8477 5.43771 92.9142 6.31312C93.9984 7.18853 94.5405 8.37659 94.5405 9.87729C94.5405 10.985 94.2472 11.905 93.6607 12.6375C93.0919 13.37 92.3276 13.8792 91.3678 14.165ZM84.5958 12.6107H87.5819C88.3284 12.6107 88.8972 12.4499 89.2882 12.1283C89.697 11.7889 89.9014 11.2976 89.9014 10.6544C89.9014 10.0113 89.697 9.51998 89.2882 9.18054C88.8972 8.84109 88.3284 8.67137 87.5819 8.67137H84.5958V12.6107ZM87.9551 20.1142C88.7194 20.1142 89.306 19.9445 89.7148 19.6051C90.1414 19.2478 90.3547 18.7386 90.3547 18.0776C90.3547 17.4165 90.1325 16.8984 89.6881 16.5233C89.2616 16.1481 88.6661 15.9605 87.9018 15.9605H84.5958V20.1142H87.9551Z" fill="#5D5FEF"/>
<path d="M103.503 5V23.8124H98.9444V5H103.503Z" fill="#5D5FEF"/>
<path d="M112.7 20.275H118.672V23.8124H108.14V5H112.7V20.275Z" fill="#5D5FEF"/>
<path d="M126.738 5V23.8124H122.179V5H126.738Z" fill="#5D5FEF"/>
<path d="M148.119 23.8124H143.56L135.934 12.2087V23.8124H131.375V5H135.934L143.56 16.6573V5H148.119V23.8124Z" fill="#5D5FEF"/>
<path d="M163.608 23.8124L157.316 15.5049V23.8124H152.757V5H157.316V13.2539L163.554 5H168.913L161.661 14.2186L169.18 23.8124H163.608Z" fill="#5D5FEF"/>
</g>
</g>
<defs>
<linearGradient id="paint0_linear_264_4747" x1="29.7651" y1="-2.76008e-07" x2="3.96169" y2="32.8746" gradientUnits="userSpaceOnUse">
<stop stop-color="#8A88FF"/>
<stop offset="1" stop-color="#5D5FEF"/>
</linearGradient>
</defs>
</svg>
