<svg width="21" height="20" viewBox="0 0 21 20" fill="none" xmlns="http://www.w3.org/2000/svg">
<g id="ph:magnifying-glass-bold">
<path id="Vector" d="M18.6641 16.8359L15.4844 13.6563C16.5113 12.3456 17.0672 10.7275 17.0625 9.0625C17.0625 7.57914 16.6226 6.1291 15.7985 4.89573C14.9744 3.66236 13.8031 2.70106 12.4326 2.13341C11.0622 1.56575 9.55418 1.41722 8.09933 1.70661C6.64447 1.996 5.3081 2.71031 4.2592 3.7592C3.21031 4.8081 2.496 6.14447 2.20661 7.59933C1.91722 9.05418 2.06575 10.5622 2.63341 11.9326C3.20106 13.3031 4.16236 14.4744 5.39573 15.2985C6.6291 16.1226 8.07914 16.5625 9.5625 16.5625C11.2275 16.5672 12.8456 16.0113 14.1563 14.9844L17.3359 18.1641C17.5129 18.3387 17.7514 18.4366 18 18.4366C18.2486 18.4366 18.4872 18.3387 18.6641 18.1641C18.7515 18.077 18.8208 17.9735 18.8681 17.8595C18.9154 17.7456 18.9398 17.6234 18.9398 17.5C18.9398 17.3766 18.9154 17.2544 18.8681 17.1405C18.8208 17.0265 18.7515 16.923 18.6641 16.8359ZM3.9375 9.0625C3.9375 7.94998 4.2674 6.86245 4.88549 5.93742C5.50357 5.01239 6.38207 4.29142 7.40991 3.86568C8.43774 3.43994 9.56874 3.32854 10.6599 3.54559C11.751 3.76263 12.7533 4.29836 13.54 5.08503C14.3266 5.8717 14.8624 6.87398 15.0794 7.96512C15.2965 9.05626 15.1851 10.1873 14.7593 11.2151C14.3336 12.2429 13.6126 13.1214 12.6876 13.7395C11.7626 14.3576 10.675 14.6875 9.5625 14.6875C8.0713 14.6854 6.64175 14.0921 5.58731 13.0377C4.53287 11.9833 3.93957 10.5537 3.9375 9.0625Z" fill="#222325"/>
</g>
</svg>
