<svg width="20" height="20" viewBox="0 0 20 20" fill="none" xmlns="http://www.w3.org/2000/svg">
<path id="Vector" d="M10 1C5.02947 1 1 5.02947 1 10C1 14.9708 5.02947 19 10 19C14.9708 19 19 14.9708 19 10C19 5.02947 14.9708 1 10 1ZM10 17.8927C5.65778 17.8927 2.125 14.3422 2.125 9.99996C2.125 5.65775 5.65778 2.12496 10 2.12496C14.3422 2.12496 17.875 5.65776 17.875 9.99996C17.875 14.3422 14.3422 17.8927 10 17.8927ZM13.5918 6.70684L8.31136 12.0205L5.93339 9.64253C5.71373 9.42288 5.35767 9.42288 5.13773 9.64253C4.91808 9.86219 4.91808 10.2183 5.13773 10.4379L7.92183 13.2223C8.14148 13.4417 8.49755 13.4417 8.71748 13.2223C8.7428 13.197 8.76447 13.1694 8.78416 13.1407L14.3878 7.50248C14.6072 7.28283 14.6072 6.92676 14.3878 6.70684C14.1678 6.48719 13.8118 6.48719 13.5918 6.70684Z" fill="white" stroke="white" stroke-width="0.5"/>
</svg>
