<svg width="49" height="49" viewBox="0 0 49 49" fill="none" xmlns="http://www.w3.org/2000/svg">
<g id="trash-2">
<path id="Vector" d="M6.5 12.9824H10.5H42.5" stroke="#5D5FEF" stroke-width="2" stroke-linecap="round" stroke-linejoin="round"/>
<path id="Vector_2" d="M38.5 12.9824V40.9824C38.5 42.0433 38.0786 43.0607 37.3284 43.8108C36.5783 44.561 35.5609 44.9824 34.5 44.9824H14.5C13.4391 44.9824 12.4217 44.561 11.6716 43.8108C10.9214 43.0607 10.5 42.0433 10.5 40.9824V12.9824M16.5 12.9824V8.98242C16.5 7.92156 16.9214 6.90414 17.6716 6.15399C18.4217 5.40385 19.4391 4.98242 20.5 4.98242H28.5C29.5609 4.98242 30.5783 5.40385 31.3284 6.15399C32.0786 6.90414 32.5 7.92156 32.5 8.98242V12.9824" stroke="#5D5FEF" stroke-width="2" stroke-linecap="round" stroke-linejoin="round"/>
<path id="Vector_3" d="M20.5 22.9824V34.9824" stroke="#5D5FEF" stroke-width="2" stroke-linecap="round" stroke-linejoin="round"/>
<path id="Vector_4" d="M28.5 22.9824V34.9824" stroke="#5D5FEF" stroke-width="2" stroke-linecap="round" stroke-linejoin="round"/>
</g>
</svg>
