<svg width="17" height="18" viewBox="0 0 17 18" fill="none" xmlns="http://www.w3.org/2000/svg">
<g id="trash-2">
<path id="Vector" d="M2.11768 4.5H3.52944H14.8236" stroke="#8A88FF" stroke-width="1.2" stroke-linecap="round" stroke-linejoin="round"/>
<path id="Vector_2" d="M13.4116 4.5V15C13.4116 15.3978 13.2629 15.7794 12.9982 16.0607C12.7334 16.342 12.3743 16.5 11.9999 16.5H4.94106C4.56664 16.5 4.20755 16.342 3.94279 16.0607C3.67804 15.7794 3.5293 15.3978 3.5293 15V4.5M5.64694 4.5V3C5.64694 2.60218 5.79568 2.22064 6.06044 1.93934C6.3252 1.65804 6.68428 1.5 7.05871 1.5H9.88224C10.2567 1.5 10.6157 1.65804 10.8805 1.93934C11.1453 2.22064 11.294 2.60218 11.294 3V4.5" stroke="#8A88FF" stroke-width="1.2" stroke-linecap="round" stroke-linejoin="round"/>
<path id="Vector_3" d="M7.05859 8.25V12.75" stroke="#8A88FF" stroke-width="1.2" stroke-linecap="round" stroke-linejoin="round"/>
<path id="Vector_4" d="M9.88232 8.25V12.75" stroke="#8A88FF" stroke-width="1.2" stroke-linecap="round" stroke-linejoin="round"/>
</g>
</svg>
