<svg width="24" height="24" viewBox="0 0 24 24" fill="none" xmlns="http://www.w3.org/2000/svg">
<path d="M9.15957 11.62C9.12957 11.62 9.10957 11.62 9.07957 11.62C9.02957 11.61 8.95957 11.61 8.89957 11.62C5.99957 11.53 3.80957 9.25 3.80957 6.44C3.80957 3.58 6.13957 1.25 8.99957 1.25C11.8596 1.25 14.1896 3.58 14.1896 6.44C14.1796 9.25 11.9796 11.53 9.18957 11.62C9.17957 11.62 9.16957 11.62 9.15957 11.62ZM8.99957 2.75C6.96957 2.75 5.30957 4.41 5.30957 6.44C5.30957 8.44 6.86957 10.05 8.85957 10.12C8.91957 10.11 9.04957 10.11 9.17957 10.12C11.1396 10.03 12.6796 8.42 12.6896 6.44C12.6896 4.41 11.0296 2.75 8.99957 2.75Z" fill="white"/>
<path d="M14.9642 10.75C14.9342 10.75 14.9042 10.75 14.8742 10.74C14.4642 10.78 14.0442 10.49 14.0042 10.08C13.9642 9.67 14.2142 9.3 14.6242 9.25C14.7442 9.24 14.8742 9.24 14.9842 9.24C16.4442 9.16 17.5842 7.96 17.5842 6.49C17.5842 4.97 16.3542 3.74 14.8342 3.74C14.4242 3.75 14.0842 3.41 14.0842 3C14.0842 2.59 14.4242 2.25 14.8342 2.25C17.1742 2.25 19.0842 4.16 19.0842 6.5C19.0842 8.8 17.2842 10.66 14.9942 10.75C14.9842 10.75 14.9742 10.75 14.9642 10.75Z" fill="white"/>
<path d="M9.16961 22.55C7.20961 22.55 5.23961 22.05 3.74961 21.05C2.35961 20.13 1.59961 18.87 1.59961 17.5C1.59961 16.13 2.35961 14.86 3.74961 13.93C6.74961 11.94 11.6096 11.94 14.5896 13.93C15.9696 14.85 16.7396 16.11 16.7396 17.48C16.7396 18.85 15.9796 20.12 14.5896 21.05C13.0896 22.05 11.1296 22.55 9.16961 22.55ZM4.57961 15.19C3.61961 15.83 3.09961 16.65 3.09961 17.51C3.09961 18.36 3.62961 19.18 4.57961 19.81C7.06961 21.48 11.2696 21.48 13.7596 19.81C14.7196 19.17 15.2396 18.35 15.2396 17.49C15.2396 16.64 14.7096 15.82 13.7596 15.19C11.2696 13.53 7.06961 13.53 4.57961 15.19Z" fill="white"/>
<path d="M17.7641 19.75C17.4141 19.75 17.1041 19.51 17.0341 19.15C16.9541 18.74 17.2141 18.35 17.6141 18.26C18.2441 18.13 18.8241 17.88 19.2741 17.53C19.8441 17.1 20.1541 16.56 20.1541 15.99C20.1541 15.42 19.8441 14.88 19.2841 14.46C18.8441 14.12 18.2941 13.88 17.6441 13.73C17.2441 13.64 16.9841 13.24 17.0741 12.83C17.1641 12.43 17.5641 12.17 17.9741 12.26C18.8341 12.45 19.5841 12.79 20.1941 13.26C21.1241 13.96 21.6541 14.95 21.6541 15.99C21.6541 17.03 21.1141 18.02 20.1841 18.73C19.5641 19.21 18.7841 19.56 17.9241 19.73C17.8641 19.75 17.8141 19.75 17.7641 19.75Z" fill="white"/>
</svg>
