<svg width="12" height="14" viewBox="0 0 12 14" fill="none" xmlns="http://www.w3.org/2000/svg">
<path d="M3.625 1.87402H3.5C3.56875 1.87402 3.625 1.81777 3.625 1.74902V1.87402H8.375V1.74902C8.375 1.81777 8.43125 1.87402 8.5 1.87402H8.375V2.99902H9.5V1.74902C9.5 1.19746 9.05156 0.749023 8.5 0.749023H3.5C2.94844 0.749023 2.5 1.19746 2.5 1.74902V2.99902H3.625V1.87402ZM11.5 2.99902H0.5C0.223438 2.99902 0 3.22246 0 3.49902V3.99902C0 4.06777 0.05625 4.12402 0.125 4.12402H1.06875L1.45469 12.2959C1.47969 12.8287 1.92031 13.249 2.45313 13.249H9.54688C10.0813 13.249 10.5203 12.8303 10.5453 12.2959L10.9313 4.12402H11.875C11.9438 4.12402 12 4.06777 12 3.99902V3.49902C12 3.22246 11.7766 2.99902 11.5 2.99902ZM9.42656 12.124H2.57344L2.19531 4.12402H9.80469L9.42656 12.124Z" fill="black" fill-opacity="0.45"/>
</svg>
