<svg width="19" height="15" viewBox="0 0 19 15" fill="none" xmlns="http://www.w3.org/2000/svg">
<path d="M16.875 3.75L9.375 8.4375L1.875 3.75V1.875L9.375 6.5625L16.875 1.875M16.875 0H1.875C0.834375 0 0 0.834375 0 1.875V13.125C0 13.6223 0.197544 14.0992 0.549175 14.4508C0.900805 14.8025 1.37772 15 1.875 15H16.875C17.3723 15 17.8492 14.8025 18.2008 14.4508C18.5525 14.0992 18.75 13.6223 18.75 13.125V1.875C18.75 1.37772 18.5525 0.900805 18.2008 0.549175C17.8492 0.197544 17.3723 0 16.875 0Z" fill="#5D5FEF"/>
</svg>
