<svg width="44" height="44" viewBox="0 0 44 44" fill="none" xmlns="http://www.w3.org/2000/svg">
<path d="M33 19.25V35.0625C33 35.5139 32.9111 35.9609 32.7383 36.378C32.5656 36.795 32.3124 37.174 31.9932 37.4932C31.674 37.8124 31.295 38.0656 30.878 38.2383C30.4609 38.4111 30.0139 38.5 29.5625 38.5H8.9375C8.02582 38.5 7.15148 38.1378 6.50682 37.4932C5.86216 36.8485 5.5 35.9742 5.5 35.0625V14.4375C5.5 13.5258 5.86216 12.6515 6.50682 12.0068C7.15148 11.3622 8.02582 11 8.9375 11H23.3303" stroke="#5D5FEF" stroke-width="2.75" stroke-linecap="round" stroke-linejoin="round"/>
<path d="M39.5262 4.5762C39.4006 4.43822 39.2484 4.32713 39.0787 4.24965C38.9089 4.17217 38.7253 4.1299 38.5388 4.1254C38.3522 4.1209 38.1667 4.15427 37.9935 4.22348C37.8202 4.29269 37.6628 4.39631 37.5307 4.52807L36.4677 5.58596C36.3389 5.71488 36.2665 5.88968 36.2665 6.07194C36.2665 6.2542 36.3389 6.429 36.4677 6.55792L37.4422 7.53073C37.5061 7.59491 37.582 7.64584 37.6656 7.68059C37.7493 7.71534 37.8389 7.73322 37.9295 7.73322C38.02 7.73322 38.1097 7.71534 38.1933 7.68059C38.2769 7.64584 38.3529 7.59491 38.4167 7.53073L39.4532 6.49948C39.9774 5.97612 40.0264 5.12362 39.5262 4.5762ZM34.3184 7.7344L18.8049 23.2203C18.7109 23.314 18.6425 23.4303 18.6064 23.5581L17.8889 25.6953C17.8717 25.7533 17.8704 25.8149 17.8853 25.8735C17.9002 25.9321 17.9306 25.9857 17.9734 26.0284C18.0162 26.0712 18.0697 26.1016 18.1283 26.1165C18.187 26.1314 18.2485 26.1302 18.3065 26.113L20.4421 25.3954C20.5698 25.3593 20.6861 25.291 20.7798 25.1969L36.2657 9.68174C36.409 9.53694 36.4894 9.34146 36.4894 9.13776C36.4894 8.93406 36.409 8.73858 36.2657 8.59378L35.4107 7.7344C35.2657 7.58982 35.0693 7.50863 34.8645 7.50863C34.6598 7.50863 34.4634 7.58982 34.3184 7.7344Z" fill="#5D5FEF"/>
</svg>
