<svg width="16" height="16" viewBox="0 0 16 16" fill="none" xmlns="http://www.w3.org/2000/svg">
<path d="M0.125 15.2463C0.125 14.9357 0.37684 14.6838 0.6875 14.6838H15.3125C15.6232 14.6838 15.875 14.9357 15.875 15.2463C15.875 15.557 15.6232 15.8088 15.3125 15.8088H0.6875C0.37684 15.8088 0.125 15.557 0.125 15.2463ZM13.2875 4.0625C13.7375 3.6125 13.7375 2.9375 13.2875 2.4875L11.2625 0.4625C10.8125 0.0125 10.1375 0.0125 9.6875 0.4625L1.25 8.9V12C1.25 12.2761 1.47386 12.5 1.75 12.5H4.85L13.2875 4.0625ZM10.475 1.25L12.5 3.275L10.8125 4.9625L8.7875 2.9375L10.475 1.25ZM2.375 11.375V9.35L8 3.725L10.025 5.75L4.4 11.375H2.375Z" fill="#8A88FF"/>
</svg>
