<svg width="15" height="16" viewBox="0 0 15 16" fill="none" xmlns="http://www.w3.org/2000/svg">
<path d="M10.0006 11.159L11.2923 9.86739C11.4663 9.69558 11.6864 9.57797 11.9259 9.52884C12.1654 9.4797 12.414 9.50116 12.6416 9.59061L14.2158 10.2191C14.4457 10.3125 14.6429 10.4718 14.7825 10.677C14.922 10.8823 14.9977 11.1242 15 11.3724V14.2555C14.9987 14.4243 14.9632 14.5912 14.8957 14.7459C14.8282 14.9007 14.73 15.0401 14.6072 15.156C14.4844 15.2718 14.3394 15.3616 14.1809 15.4199C14.0225 15.4782 13.8539 15.5038 13.6853 15.4953C2.6544 14.8091 0.428617 5.46772 0.00767922 1.89263C-0.011861 1.71706 0.00599238 1.53935 0.0600648 1.37119C0.114137 1.20302 0.203203 1.04821 0.321403 0.916935C0.439604 0.785662 0.584259 0.680903 0.745854 0.609551C0.907448 0.538198 1.08232 0.501869 1.25896 0.502953H4.04407C4.29261 0.503689 4.53523 0.578761 4.74075 0.718514C4.94627 0.858266 5.10528 1.05631 5.19733 1.28717L5.82585 2.86136C5.91826 3.08802 5.94183 3.33687 5.89363 3.57685C5.84543 3.81682 5.7276 4.03728 5.55484 4.21067L4.26319 5.50232C4.26319 5.50232 5.00704 10.5363 10.0006 11.159Z" fill="#5D5FEF"/>
</svg>
